<svg xmlns="http://www.w3.org/2000/svg" viewBox="0 0 500 500">
	<defs>
		<linearGradient id="purply" x1="250" x2="250" y1="0" y2="500" gradientUnits="userSpaceOnUse">
			<stop offset="0" style="stop-color: #260a3d;"/>
			<stop offset="1" style="stop-color: #7d20c9;"/>
		</linearGradient>
	</defs>
	<circle cx="250" cy="250" r="250" fill="#fff" />
	<path
		d="M250.3 103.4s0 0 0 0 0 0 0 0h0c-4.4 18-8.9 36.5-10.3 53.4l18.3 10.3 13.2-11.7h0c.9-2 .5-3.8-.8-6.6-1.4-2.9-3.6-6.3-6.3-10.6a101.9 101.9 0 0 1-14-34.8Zm5.6-44h.9c.3 0 .5.2.8.4.4.4.7 1 .8 1.4.3 1 .4 2.4.2 4-.5 6.6-3.6 19.2-7.2 33.7v-.2l-2 .1c-1.4-8.8-2-19-1.3-31h2v-3c2.6-3.3 4.5-5 5.8-5.3Z"
		style="stroke-miterlimit:1; stroke-linecap:round; stroke-linejoin:round; paint-order:fill; stroke-width:0; stroke:#000; fill:transparent"/>
	<path
		d="M268 79.8c-2 4-5.5 9-9 16.2-7 14.3-14.3 37.2-12.9 79.1h-1v2h.4a28 28 0 0 1-7.9 9c-1 .6-2 .8-3 .6-1-.2-1.7-.9-2.3-2-2.7-4-3.6-14.1-3.8-27.2-.3-26.1 2.3-64.1.3-90L254.6 52 265 64l3 6.8 1.8-.8c1 3.2.4 5.8-1.7 9.8Z"
		style="stroke-miterlimit:1; stroke-linecap:round; stroke-linejoin:round; paint-order:fill; stroke-width:0; stroke:transparent"
		transform="rotate(180 249.4 119.4)"/>
	<g style="paint-order:fill; stroke-width:16px; stroke:#000; fill:url(#purply);">
		<circle cx="250" cy="205" r="42" />
		<circle cx="250" cy="401" r="42" />
		<circle cx="178" cy="347" r="42" />
		<circle cx="333" cy="213" r="42" />
		<circle cx="250" cy="338" r="42" />
		<circle cx="166" cy="212" r="42" />
		<circle cx="324" cy="345" r="42" />
		<circle cx="297" cy="275" r="42" />
		<circle cx="206" cy="275" r="42" />
		<circle cx="376" cy="276" r="42" />
		<circle cx="125" cy="276" r="42" />
	</g>
</svg>